{
	"accessors": [
		{
			"bufferView": 0,
			"byteOffset": 0,
			"componentType": 5126,
			"count": 4,
			"max": [
				1.0,
				1.0,
				0.0
			],
			"min": [
				-1.0,
				-1.0,
				0.0
			],
			"type": "VEC3"
		},
		{
			"bufferView": 1,
			"byteOffset": 0,
			"componentType": 5126,
			"count": 4,
			"type": "VEC3"
		},
		{
			"bufferView": 2,
			"byteOffset": 0,
			"componentType": 5126,
			"count": 4,
			"type": "VEC2"
		},
		{
			"bufferView": 3,
			"byteOffset": 0,
			"componentType": 5123,
			"count": 6,
			"type": "SCALAR"
		}
	],
	"asset": {
		"extras": {
			"created": "Thu Mar 24 08:46:54 2022"
		},
		"generator": "Gestaltor 2021.7.1 Corn Community",
		"version": "2.0"
	},
	"bufferViews": [
		{
			"buffer": 0,
			"byteLength": 48,
			"byteOffset": 0
		},
		{
			"buffer": 0,
			"byteLength": 48,
			"byteOffset": 48
		},
		{
			"buffer": 0,
			"byteLength": 32,
			"byteOffset": 96
		},
		{
			"buffer": 0,
			"byteLength": 12,
			"byteOffset": 128
		}
	],
	"buffers": [
		{
			"byteLength": 140,
			"uri": "data:application/octet-stream;base64,"
		}
	],
	"extensionsUsed": [
		"KHR_materials_unlit"
	],
	"materials": [
		{
			"doubleSided": true,
			"extensions": {
				"KHR_materials_unlit": {}
			},
			"name": "Material.002",
			"pbrMetallicRoughness": {
				"baseColorFactor": [
					0.1904631108045578,
					0.4313420355319977,
					0.3837796449661255,
					1.0
				],
				"metallicFactor": 0.0,
				"roughnessFactor": 0.5
			}
		}
	],
	"meshes": [
		{
			"name": "Plane",
			"primitives": [
				{
					"attributes": {
						"NORMAL": 1,
						"POSITION": 0,
						"TEXCOORD_0": 2
					},
					"indices": 3,
					"material": 0,
					"mode": 4
				}
			]
		}
	],
	"nodes": [
		{
			"mesh": 0,
			"name": "Plane"
		}
	],
	"scene": 0,
	"scenes": [
		{
			"name": "Scene",
			"nodes": [
				0
			]
		}
	]
}